<svg xmlns="http://www.w3.org/2000/svg" fill="none" viewBox="0 0 32 32">
  <path
    fill="#ee513b"
    d="M2.585 17.413a1.999 1.999 0 0 1 0-2.826L14.587 2.585c.78-.78 2.046-.78 2.826 0l12.002 12.002c.78.78.78 2.046 0 2.826L17.413 29.415c-.78.78-2.046.78-2.826 0L2.585 17.413Z"
  />
  <path
    fill="#fff"
    d="m12.15 5.062-1.216 1.215 3.139 3.139a2.126 2.126 0 0 0 1.177 2.886v7.678a2.126 2.126 0 1 0 1.719.097v-7.765l3 3a2.125 2.125 0 1 0 1.283-1.147l-3.222-3.223a2.125 2.125 0 0 0-2.66-2.66l-3.22-3.22Z"
  />
</svg>
