<svg xmlns="http://www.w3.org/2000/svg" fill="none" viewBox="0 0 168 115">
  <g clip-path="url(#a)">
    <path
      fill="#5d87a1"
      d="M114.9 11.6c-.8 0-1.4.1-2 .2v.1h.1c.4.7 1.1 1.3 1.5 1.9.4.8.7 1.5 1.1 2.3l.1-.1c.7-.5 1-1.2 1-2.4-.3-.3-.3-.6-.6-1-.2-.4-.9-.7-1.2-1Z"
    />
    <path
      fill="#00758f"
      d="M40.4 104h-6.5c-.2-11-.833-21.3-1.9-30.9L22.1 104h-4.9L7.4 73.1h-.1c-.733 9.267-1.2 19.567-1.4 30.9H0c.4-13.8 1.367-26.734 2.9-38.8h8l9.4 28.5 9.4-28.5h7.7c1.667 14.133 2.667 27.066 3 38.8Zm28.1-28.6c-2.6 14.333-6.067 24.733-10.4 31.2-3.4 5-7.1 7.5-11.1 7.5-1.067 0-2.4-.334-4-1v-3.4c.8.133 1.7.2 2.7.2 1.933 0 3.467-.534 4.6-1.6 1.333-1.267 2-2.667 2-4.2 0-1.067-.533-3.267-1.6-6.6l-7.1-22.1H50l5.1 16.5c1.133 3.733 1.6 6.366 1.4 7.9 2.8-7.467 4.767-15.6 5.9-24.4h6.1Z"
    />
    <path fill="#f29111" d="M154.8 104h-18.4V65.2h6.2v34h12.2v4.8Z" />
    <path
      fill="#f29111"
      fill-rule="evenodd"
      d="m129.1 109.2-9.3-5.4c-1.534.467-3.234.7-5.1.7-4.934 0-8.634-1.433-11.1-4.3-2.667-3.133-4-8.133-4-15 0-6.867 1.533-12.1 4.6-15.7 2.733-3.267 6.566-4.9 11.5-4.9 10.066 0 15.1 6.433 15.1 19.3 0 6.933-1.534 12.166-4.6 15.7-.534.667-1.1 1.267-1.7 1.8l7.1 3.5-2.5 4.3Zm-13.7-9.5c5.933 0 8.9-4.934 8.9-14.8 0-5.534-.8-9.534-2.4-12-1.467-2.334-3.734-3.5-6.8-3.5-5.934 0-8.9 4.866-8.9 14.6 0 5.6.766 9.666 2.3 12.2 1.466 2.333 3.766 3.5 6.9 3.5Z"
      clip-rule="evenodd"
    />
    <path
      fill="#f29111"
      d="M96.9 93.2c0 3.266-1.2 5.966-3.6 8.1-2.4 2.133-5.634 3.2-9.7 3.2-3.8 0-7.467-1.233-11-3.7l1.7-3.3c3.066 1.533 5.833 2.3 8.3 2.3 2.333 0 4.166-.5 5.5-1.5 1.3-1.1 2.1-2.5 2.1-4.3 0-2.3-1.6-4.3-4.6-5.9-2.7-1.5-8.1-4.7-8.1-4.7-3-2.1-4.4-4.4-4.4-8.2 0-3.133 1.1-5.667 3.3-7.6 2.2-1.933 5.033-2.9 8.5-2.9 3.6 0 6.866.966 9.8 2.9l-1.5 3.3c-2.534-1.067-5.034-1.6-7.5-1.6-1.934 0-3.467.466-4.6 1.4-1 1-1.7 2.2-1.7 3.7 0 2.3 1.6 4.3 4.7 6 2.7 1.5 8.3 4.6 8.3 4.6 3 2.2 4.5 4.5 4.5 8.2Z"
    />
    <path
      fill="#00758f"
      d="M162.6 52.2c-3.7-.1-6.6.3-9.1 1.4-.7.2-1.8.2-1.9 1.1.4.4.4 1 .8 1.5.5 1 1.5 2.2 2.4 2.9 1 .7 2 1.5 3 2.1 1.8 1.2 3.9 1.8 5.6 2.9 1.1.7 2.1 1.5 3.1 2.2.6.4.9 1 1.5 1.2v-.1c-.3-.4-.4-1-.7-1.5-.5-.5-.9-.9-1.4-1.3-1.4-1.9-3.1-3.5-4.9-4.8-1.5-1-4.8-2.4-5.4-4.1 0 0 0-.1-.1-.1 1.1-.1 2.3-.5 3.3-.8 1.6-.4 3-.3 4.6-.7.8-.2 1.567-.434 2.3-.7V53c-.8-.9-1.5-2-2.3-2.8-2.4-2-5.1-4-7.8-5.7-1.4-1-3.3-1.6-4.8-2.4-.6-.2-1.5-.4-1.9-.9-.8-1-1.3-2.3-1.9-3.6-1.3-2.5-2.6-5.4-3.8-8.1-.9-1.8-1.4-3.7-2.4-5.3-4.8-8-10.1-12.8-18.1-17.5-1.7-1-3.8-1.4-6-2-1.2 0-2.3-.1-3.5-.1-.8-.4-1.5-1.3-2.2-1.7-2.6-1.7-9.5-5.3-11.5-.5-1.2 3 1.9 6 3 7.6.8 1.1 1.8 2.3 2.3 3.5.4.8.5 1.6.8 2.5.7 2 1.4 4.3 2.4 6.2.5 1 1.1 2.1 1.8 2.9.3.6 1 .8 1.1 1.6-.6 1-.7 2.4-1 3.5-1.7 5.3-1.1 11.9 1.3 15.8.8 1.1 2.5 3.7 4.9 2.7 2.1-.8 1.7-3.5 2.3-5.8.1-.6 0-1 .3-1.3v.1c.7 1.3 1.3 2.5 1.9 3.9 1.5 2.2 4 4.6 6.1 6.2 1.1.9 2 2.3 3.4 2.8v-.1h-.1c-.3-.4-.7-.6-1-.9-.9-.9-1.8-1.9-2.5-2.9-1.9-2.6-3.7-5.5-5.2-8.5-.8-1.4-1.4-3-2-4.5-.3-.5-.3-1.4-.8-1.7-.7 1.1-1.7 2-2.2 3.2-.9 2-1 4.5-1.3 7.1-.2 0-.1 0-.2.1-1.5-.4-2-1.9-2.6-3.2-1.4-3.4-1.6-8.7-.4-12.5.3-1 1.7-4.1 1.1-5-.2-.9-1.2-1.4-1.7-2.1-.6-.9-1.3-2.1-1.7-3-1.1-2.7-1.7-5.6-2.9-8.2-.5-1.2-1.5-2.5-2.3-3.6-.9-1.3-1.9-2.1-2.6-3.6-.2-.6-.5-1.4-.2-2 .1-.3.3-.5.7-.6.6-.5 2.3.2 2.9.5 1.8.7 3.2 1.3 4.7 2.3.6.5 1.3 1.3 2.2 1.6h.9c1.5.3 3.2.1 4.6.5 2.5.8 4.8 2 6.8 3.2 6.1 3.9 11.2 9.4 14.6 16 .5 1.1.8 2.1 1.3 3.2 1 2.3 2.2 4.7 3.2 6.9s1.9 4.4 3.3 6.3c.7 1 3.5 1.5 4.8 2 .9.4 2.4.8 3.2 1.3 1.6 1 3.2 2.1 4.7 3.2.7.5 3.1 1.7 3.2 2.6Z"
    />
    <path
      fill="#f29111"
      d="M167.1 103.9h.9v-4.7h-1.4l-1.2 3.2-1.3-3.2h-1.4v4.7h.9v-3.6h.1l1.3 3.6h.7l1.4-3.6v3.6Zm-7.8 0h1V100h1.3v-.8h-3.7v.8h1.4v3.9Z"
    />
  </g>
  <defs>
    <clipPath id="a">
      <path fill="#fff" d="M0 0h168v114.1H0z" />
    </clipPath>
  </defs>
</svg>
